<svg t="1706593031275" class="icon" viewBox="0 0 1024 1024" version="1.1" xmlns="http://www.w3.org/2000/svg" p-id="5949" width="200" height="200"><path d="M689.005714 396.995048c139.312762 0 257.414095 61.586286 261.607619 151.576381l0.073143 4.924952v152.137143c0 92.647619-119.832381 156.476952-261.705143 156.476952-18.822095 0-37.254095-1.121524-55.100952-3.291428v-73.825524c17.310476 2.56 35.815619 3.974095 55.100952 3.974095 106.812952 0 188.586667-43.544381 188.586667-83.358476v-41.837714c-29.915429 18.16381-67.413333 31.646476-109.519238 39.277714-25.33181 4.583619-51.931429 6.948571-79.067429 6.948571-18.70019 0-37.156571-1.121524-55.100952-3.315809v-73.801143c17.700571 2.633143 36.230095 3.974095 55.100952 3.974095 22.79619 0 45.031619-1.950476 66.023619-5.778286 75.239619-13.628952 122.563048-48.249905 122.563048-77.58019 0-39.789714-81.773714-83.358476-188.586667-83.358476-19.285333 0-37.790476 1.438476-55.100952 3.998476v-73.849905a457.045333 457.045333 0 0 1 55.100952-3.291428zM333.04381 134.095238c139.312762 0 257.414095 61.586286 261.607619 151.552l0.073142 4.949333v458.361905c0 92.647619-119.832381 156.501333-261.705142 156.501334-141.848381 0-261.705143-63.853714-261.705143-156.501334v-305.737143-152.649143c0-92.647619 119.856762-156.476952 261.705143-156.476952z m188.586666 573.025524c-29.93981 18.16381-67.437714 31.646476-109.543619 39.277714-25.33181 4.583619-51.931429 6.948571-79.067428 6.948572a444.708571 444.708571 0 0 1-79.043048-6.948572c-42.105905-7.631238-79.60381-21.113905-109.519238-39.253333v41.813333l0.121905 2.730667c3.608381 39.033905 84.065524 80.62781 188.464762 80.627809 106.788571 0 188.562286-43.544381 188.562285-83.358476v-41.837714z m0-153.112381c-29.93981 18.139429-67.437714 31.646476-109.543619 39.253333-25.33181 4.608-51.931429 6.948571-79.067428 6.948572a444.708571 444.708571 0 0 1-79.043048-6.948572c-42.105905-7.606857-79.60381-21.113905-109.519238-39.253333v42.837333l0.146286 2.852572c2.925714 28.696381 49.590857 61.537524 122.392381 74.727619 20.992 3.803429 43.25181 5.778286 66.023619 5.778285 22.79619 0 45.031619-1.950476 66.023619-5.778285 75.239619-13.653333 122.563048-48.249905 122.563047-77.580191v-42.861714z m0-153.136762c-29.93981 18.139429-67.437714 31.646476-109.543619 39.253333-25.33181 4.632381-51.931429 6.972952-79.067428 6.972953a444.708571 444.708571 0 0 1-79.043048-6.948572c-42.105905-7.631238-79.60381-21.113905-109.519238-39.277714V443.733333l0.146286 2.852572c2.925714 28.696381 49.590857 61.513143 122.392381 74.727619 20.992 3.803429 43.25181 5.753905 66.023619 5.753905 22.79619 0 45.031619-1.950476 66.023619-5.753905 75.239619-13.653333 122.563048-48.274286 122.563047-77.580191v-0.487619-42.374095zM333.019429 207.238095c-106.788571 0-188.562286 43.544381-188.562286 83.358476 0 29.330286 47.299048 63.951238 122.563047 77.580191 20.967619 3.803429 43.227429 5.778286 65.999239 5.778286 22.79619 0 45.031619-1.974857 66.023619-5.778286 75.239619-13.653333 122.563048-48.249905 122.563047-77.580191 0-39.814095-81.773714-83.358476-188.586666-83.358476z" p-id="5950" fill="#1296db"></path></svg>
