<svg t="1706845015930" class="icon" viewBox="0 0 1024 1024" version="1.1" xmlns="http://www.w3.org/2000/svg" p-id="7566" width="200" height="200"><path d="M944.8 840.4H79.2C36.4 840.4 2 805.6 2 763.2V77.2C1.6 34.8 36.4 0 79.2 0h866c42.4 0 76.8 34.4 76.8 76.8v686c0.4 42.8-34.4 77.6-77.2 77.6z m0.4-826.4H79.2C44 14 15.6 42.4 15.6 77.2v685.6c0 34.8 28.4 63.2 63.2 63.2h865.6c34.8 0 63.2-28.4 63.2-63.2V76.8c0.8-34.4-27.6-62.8-62.4-62.8z m2.4 670.8H81.2v-596h866.4v596z m-852.4-14h838v-568H95.2v568z" fill="#4A555F" p-id="7567"></path><path d="M79.2 31.2C53.6 31.2 32.8 52 32.8 77.6v685.6c0 25.6 20.8 46.4 46.4 46.4h865.6c25.6 0 46.4-20.8 46.4-46.4V71.6c0-22.4-18-40.4-40.4-40.4H79.2z m885.2 670.4H64V71.6h900.4v630z" fill="#E0E0E0" p-id="7568"></path><path d="M676.8 961.2h-320l56-134.8h207.6l56.4 134.8z m-298.8-14h277.6l-44.4-106.8h-188.8l-44.4 106.8z" fill="#4A555F" p-id="7569"></path><path d="M403.6 930l30-72.4H600l30 72.4z" fill="#E0E0E0" p-id="7570"></path><path d="M806.8 1024h-580v-76.8h580.4V1024z m-566-14h552v-48.8h-552v48.8z" fill="#4A555F" p-id="7571"></path><path d="M257.6 978h518v14.8H257.6z" fill="#E0E0E0" p-id="7572"></path><path d="M35.2 1010h963.2v14H35.2z" fill="#4A555F" p-id="7573"></path><path d="M517.6 756.4m-38 0a38 38 0 1 0 76 0 38 38 0 1 0-76 0Z" fill="#FFFFFF" p-id="7574"></path><path d="M517.6 801.6c-24.8 0-44.8-20-44.8-44.8s20-44.8 44.8-44.8c24.8 0 44.8 20 44.8 44.8s-20 44.8-44.8 44.8z m0-76c-17.2 0-30.8 14-30.8 30.8 0 17.2 14 30.8 30.8 30.8 17.2 0 30.8-14 30.8-30.8s-13.6-30.8-30.8-30.8z" fill="#4A555F" p-id="7575"></path><path d="M722.8 411.6l-44.8-152.8c-1.2-4-2.4-8.4-4.4-12.4-10.8-22-32-35.6-54.4-37.2v-0.4h-213.6v0.4c-22.8 2-44 15.2-54.4 37.2-1.2 2.8-2.4 5.2-3.2 8v0.4l-1.2 3.6-44.8 152.8c-9.6 19.6-1.2 43.2 18.4 52.8 19.6 9.6 43.2 1.2 52.8-18.4L424.4 372h175.2l52.4 74c9.6 19.6 33.2 28 52.8 18.4 19.2-9.6 27.6-33.2 18-52.8zM399.6 297.6c-2.4 2.4-6 4-10 4h-14v-28.4h14c7.6 0 14 6.4 14 14 0 4.4-1.6 8-4 10.4z m38.8 38.8h-28.4v-14c0-8 6.4-14 14-14 4 0 7.6 1.6 10 4 2.4 2.4 4 6 4 10l0.4 14z m0-83.6c0 7.6-6.4 14-14 14-4 0-7.6-1.6-10-4-2.4-2.4-4-6-4-10v-14h28.4l-0.4 14z m34.8 49.2h-14c-8 0-14-6.4-14-14 0-4 1.6-7.6 4-10 2.4-2.4 6-4 10-4h14v28z m110-4.4c-2.4 2.4-6 4-10 4s-7.6-1.6-10-4c-2.4-2.4-4-6-4-10 0-8 6.4-14 14-14 4 0 7.6 1.6 10 4 2.4 2.4 4 6 4 10s-1.6 7.6-4 10z m28.8 41.2h-1.6c-7.2 0-13.2-5.2-14-12.4-0.8-7.6 4.8-14.8 12.4-15.6h1.6c7.2 0 13.2 5.2 14 12.4v1.6c0 6.8-5.2 13.2-12.4 14z m8.4-78.4c-2.4 2.4-6 4-10 4-8 0-14-6.4-14-14 0-4 1.6-7.6 4-10 2.4-2.4 6-4 10-4s7.6 1.6 10 4c2.4 2.4 4 6 4 10s-1.6 7.6-4 10z m36.8 37.2c-2.4 2.4-6 4-10 4s-7.6-1.6-10-4c-2.4-2.4-4-6-4-10 0-8 6.4-14 14-14 4 0 7.6 1.6 10 4 2.4 2.4 4 6 4 10 0.4 4-1.2 7.6-4 10z" fill="#71CDE1" p-id="7576"></path><path d="M336.8 475.2c-7.2 0-14-1.6-20-4.8-22.8-11.2-32.4-38.4-22-61.6l44.8-152 1.2-3.6v-0.4c1.2-3.6 2.4-6.4 3.6-9.2 10.4-21.2 30.8-36.4 54-40.4v-0.8l7.2-0.4h220.8v1.2c23.2 4 43.6 19.2 54 40.4 2.4 4.8 3.6 9.2 4.8 13.2l44.8 152c5.2 11.2 6 23.6 1.6 34.8-4 11.6-12.4 21.2-23.6 26.4-6.4 3.2-13.2 4.8-20 4.8-17.6 0-33.6-10-41.6-25.6L596 378.8h-168l-50 70.8c-7.6 15.6-24 25.6-41.2 25.6zM407.6 216l-2 0.4c-20.8 1.6-39.6 14.4-48.8 33.6-1.2 2.4-2 4.8-2.8 7.2v0.4c-0.4 1.2-0.8 2.4-0.8 3.2l-45.6 154c-7.6 16-1.2 35.6 15.2 43.2 4.4 2 9.2 3.2 14 3.2 12.4 0 24-7.2 29.2-18.4l0.4-0.8 54.4-77.2h182.4l54.8 78c5.2 11.2 16.8 18.4 29.2 18.4 4.8 0 9.6-1.2 14-3.2 7.6-3.6 13.6-10.4 16.4-18.4 2.8-8 2.4-16.8-1.6-24.8l-0.4-1.2-44.8-152.8c-1.2-3.2-2.4-7.2-4-11.2-9.2-18.8-28-31.6-48.8-33.6l-2.8-0.4h-207.6z" fill="#4A555F" p-id="7577"></path><path d="M610.4 271.6h-0.8c-11.6 0-20.8-9.2-20.8-20.8v-0.8c0-11.6 9.2-20.8 20.8-20.8h0.8c11.6 0 20.8 9.2 20.8 20.8v0.8c0 11.6-9.2 20.8-20.8 20.8z m-0.4-28.4c-3.6 0-6.8 3.2-6.8 6.8v0.8c0 3.6 3.2 6.8 6.8 6.8h0.8c3.6 0 6.8-3.2 6.8-6.8v-0.8c0-3.6-3.2-6.8-6.8-6.8h-0.8zM610 346c-10.4 0-19.6-8-20.8-18.4v-0.8c-1.2-11.2 6.8-21.6 18.4-23.2h0.8c11.6-1.2 21.6 6.8 23.2 18.4v0.8c1.2 11.6-6.8 21.6-18.4 23.2h-3.2z m0.4-28.4h-1.6c-3.6 0.4-6.4 4-6 7.6v0.8c0.4 3.6 3.6 6.4 7.6 6h0.8c3.6-0.4 6.4-4 6-7.6v-0.8c-0.4-3.6-3.2-6-6.8-6zM647.6 308.8h-0.8c-11.6 0-20.8-9.2-20.8-20.8v-0.8c0-11.6 9.2-20.8 20.8-20.8h0.8c11.6 0 20.8 9.2 20.8 20.8v0.8c0 11.6-9.2 20.8-20.8 20.8z m-0.8-28.4c-3.6 0-6.8 3.2-6.8 6.8v0.8c0 3.6 3.2 6.8 6.8 6.8h0.8c3.6 0 6.8-3.2 6.8-6.8v-0.8c0-3.6-3.2-6.8-6.8-6.8h-0.8zM573.6 308.8h-0.8c-11.6 0-20.8-9.2-20.8-20.8v-0.8c0-11.6 9.2-20.8 20.8-20.8h0.8c11.6 0 20.8 9.2 20.8 20.8v0.8c0 11.6-9.6 20.8-20.8 20.8z m-0.8-28.4c-3.6 0-6.8 3.2-6.8 6.8v0.8c0 3.6 3.2 6.8 6.8 6.8h0.8c3.6 0 6.8-3.2 6.8-6.8v-0.8c0-3.6-3.2-6.8-6.8-6.8h-0.8z" fill="#4A555F" p-id="7578"></path><path d="M389.6 308.8H368V266.4h21.6c11.6 0 20.8 9.2 20.8 20.8v0.8c0.4 11.6-9.2 20.8-20.8 20.8z m-7.2-14h7.6c3.6 0 6.8-3.2 6.8-6.8v-0.8c0-3.6-3.2-6.8-6.8-6.8h-7.6v14.4zM480 308.8h-21.6c-11.6 0-20.8-9.2-20.8-20.8v-0.8c0-11.6 9.2-20.8 20.8-20.8h21.6v42.4z m-21.6-28.4c-3.6 0-6.8 3.2-6.8 6.8v0.8c0 3.6 3.2 6.8 6.8 6.8h7.6v-14.4h-7.6zM424.4 274h-0.8c-11.6 0-20.8-9.2-20.8-20.8v-21.6h42.4v21.6c0 11.6-9.2 20.8-20.8 20.8z m-7.6-28.4v7.6c0 3.6 3.2 6.8 6.8 6.8h0.8c3.6 0 6.8-3.2 6.8-6.8v-7.6h-14.4zM445.2 343.6h-42.4v-21.6c0-11.6 9.2-20.8 20.8-20.8h0.8c11.6 0 20.8 9.2 20.8 20.8v21.6z m-28.4-14h14.4v-7.6c0-3.6-3.2-6.8-6.8-6.8h-0.8c-3.6 0-6.8 3.2-6.8 6.8v7.6z" fill="#4A555F" p-id="7579"></path><path d="M461.2 216H387.2V169.6h74V216z m-60-14h45.6v-18.4h-45.6v18.4z" fill="#4A555F" p-id="7580"></path><path d="M629.2 216h-74V169.6h74V216z m-60-14h45.6v-18.4h-45.6v18.4z" fill="#4A555F" p-id="7581"></path><path d="M774.4 444l-10-10 93.6-96.4-93.6-96.4 10-9.6 103.2 106zM249.6 444L146.4 337.6l103.2-106 10 9.6-93.6 96.4 93.6 96.4z" fill="#4A555F" p-id="7582"></path><path d="M602.4 518l-34-13.6 14.8-33.6-10-10-1.6-1.6-0.4-0.4-33.6 14.8-13.6-34h-14.4l-13.2 34-33.6-14.8-9.2 9.2-0.8 0.8 14.8 33.6-34 13.2v14.4l34 13.6-14.8 33.6 2.8 2.8 8.8 8.8 0.4 0.4 33.6-14.8 13.6 34h14.4l13.2-34 33.6 14.8 9.2-9.2 0.8-0.8-14.8-33.6 34-13.2v-14.4z m-84.8 34c-10 0-18.8-5.6-23.6-13.6-2.4-4-4-8.8-4-14 0-15.2 12.4-27.6 27.6-27.6 4.8 0 9.6 1.2 13.6 3.6 8.4 4.8 14 13.6 14 24-0.4 15.6-12.4 27.6-27.6 27.6z" fill="#FFD552" p-id="7583"></path><path d="M530.4 616h-24l-12.4-32-32 14-3.6-4-15.2-14.8 13.6-31.6-31.6-12.4v-24l31.6-12.4-13.6-31.2 4-4 12.8-12.8 31.2 13.6 12.4-32h24l12.4 32 31.2-13.6 18.8 18.8-13.6 31.2 32 12.4v24l-32 12.4 13.6 31.6-4.4 4-12.8 12.8-31.2-13.6-11.2 31.6z m-14-14h4.8l14.4-36.4 36 15.6 3.2-3.2-15.6-36 36.4-14.4v-4.8l-36.4-14.4 15.6-36-5.6-5.6-36 15.6-14.4-36.4h-4.8l-14.4 36.4-36-15.6-3.2 3.2 15.6 36-36.4 14.4v4.8l36.4 14.4-15.6 36 5.6 5.6 36-15.6 14.4 36.4z m1.2-42.8c-12 0-23.6-6.4-29.6-16.8-3.2-5.2-4.8-11.2-4.8-17.6 0-19.2 15.6-34.4 34.4-34.4 6 0 12 1.6 17.2 4.4 10.8 6 17.6 17.6 17.6 30-0.4 18.8-16 34.4-34.8 34.4z m0-54.8c-11.2 0-20.4 9.2-20.4 20.4 0 3.6 0.8 7.2 2.8 10.4 3.6 6.4 10.4 10 17.6 10 11.2 0 20.4-9.2 20.4-20.4 0-7.2-4-14-10.4-17.6-3.2-2-6.8-2.8-10-2.8z" fill="#4A555F" p-id="7584"></path></svg>